<svg width="32" height="33" viewBox="0 0 32 33" fill="none" xmlns="http://www.w3.org/2000/svg">
<path d="M28.9779 17.5999C29.0825 17.5999 29.187 17.5999 29.29 17.603C29.487 17.606 29.69 17.6075 29.8885 17.6014C29.9688 17.3302 29.9915 16.3273 29.8279 14.8925C29.6385 13.2259 29.3643 12.4244 29.2219 12.2744C27.5249 12.641 25.8735 13.0213 24.3084 13.6334C22.8994 14.1834 21.7843 14.9091 20.8994 15.8485C20.5207 16.25 20.1767 16.7621 19.901 17.3272C18.8525 19.4832 18.9965 21.7725 20.354 24.5299C20.8813 25.6026 21.61 26.5177 22.3221 27.348C22.9448 27.3829 26.5523 24.8981 26.8098 24.2618C26.5129 23.9118 26.172 23.5709 25.7962 23.2436C25.4629 22.9543 25.1038 22.6785 24.7569 22.4134C24.5993 22.2922 24.4417 22.1725 24.2872 22.0497C24.2417 22.0134 24.1978 21.9755 24.1523 21.9376C23.6009 21.4604 23.0281 20.8756 23.2175 19.9635C23.3872 19.1438 23.9705 18.5423 24.9023 18.2257C26.272 17.759 27.5325 17.6454 28.9794 17.5984L28.9779 17.5999Z" fill="#FF323F"/>
<path d="M12.6667 4.57313C12.8061 5.07614 12.9985 5.59733 13.2379 6.12155C13.7121 7.15636 14.2469 8.27298 14.9211 9.63505C15.0833 9.96382 15.2939 10.3108 15.5817 10.7289C16.6196 12.2365 18.065 12.8607 19.8755 12.5864C22.2618 12.2243 24.6011 11.4122 26.8283 10.1759C26.9631 10.1017 27.0904 10.0153 27.2268 9.92443C27.2252 9.92443 27.3419 9.70474 26.9146 8.73054C26.2177 7.14424 24.9571 5.46249 24.6072 5.36098C24.0041 5.75339 23.4072 6.18216 22.8299 6.59729L22.789 6.62759C22.5421 6.80486 22.2997 6.98667 22.0557 7.16848C21.683 7.44726 21.2982 7.73512 20.9043 8.00178C20.6634 8.16541 20.3649 8.29116 19.9649 8.39873C19.3604 8.56236 18.8937 8.30631 18.7149 7.71694C18.6013 7.33665 18.5301 6.92001 18.5028 6.47457C18.4786 6.07004 18.4225 4.38678 18.424 4.20193C18.4271 3.8171 18.4301 3.42015 18.4195 3.03077C17.9665 2.87926 15.4439 3.30197 13.6909 3.98831C12.8243 4.32769 12.6864 4.53677 12.6667 4.57465V4.57313Z" fill="#FF323F"/>
<path d="M2.07303 13.903C1.90182 14.6181 2.71694 19.0634 3.13965 19.7179C4.1578 19.5831 5.13958 19.2225 6.22136 18.8195C7.97584 18.165 9.85607 17.1786 10.4212 16.8074C11.653 15.9984 12.4923 15.1302 12.6378 13.5167C12.6484 13.403 12.6454 13.2864 12.6423 13.1621C12.6423 13.1015 12.6393 13.0409 12.6393 12.9803V12.9773C12.656 11.9016 12.406 10.791 11.8999 9.67591C11.2621 8.27142 10.547 6.86845 9.85607 5.51396L9.80001 5.40487C9.53487 5.39427 8.51067 5.86243 7.35465 6.69118C6.47286 7.32449 6.10621 7.75629 6.0653 7.90174C6.39862 8.29566 6.73346 8.7608 7.11526 9.36229C7.50464 9.97438 7.90614 10.6501 8.37734 11.488C8.62127 11.9213 8.68036 12.3046 8.55612 12.6303C8.43794 12.9379 8.16523 13.1652 7.74554 13.3061C6.9183 13.5848 6.10773 13.7606 5.33503 13.8273C4.56687 13.8939 3.78508 13.8954 3.02905 13.897C2.70937 13.897 2.38968 13.897 2.07151 13.903H2.07303Z" fill="#FF323F"/>
<path d="M18.0287 29.6175C18.0635 29.2902 18.1226 29.4387 18.1226 28.4569C18.0666 26.5191 17.8514 24.9389 17.4469 23.4874C16.6015 20.4573 13.9728 18.9013 10.9047 19.6134C8.95024 20.0679 7.10334 20.8724 5.41249 22.0042C5.03826 22.2557 4.69888 22.5799 4.3595 22.9208C4.46555 23.1662 5.02462 23.9056 5.94732 24.8495C7.02455 25.951 7.67756 26.3964 7.86997 26.4358C8.15178 26.1843 8.42904 25.9176 8.69722 25.6586C8.99872 25.3677 9.31234 25.0677 9.63354 24.7859C10.1653 24.3177 10.7138 23.8814 11.2653 23.4874C11.9213 23.0178 12.5834 22.9769 13.1789 23.3693C13.9501 23.8768 14.3106 24.5223 14.2485 25.2889C14.2076 25.7874 14.097 26.3207 13.897 26.9661C13.7758 27.357 13.6304 27.7418 13.4879 28.116C13.3652 28.4372 13.2395 28.7706 13.1319 29.0993C13.0455 29.366 13.0061 29.6539 12.9804 29.9326C13.7288 30.0978 17.5363 29.9463 18.0302 29.6175H18.0287Z" fill="#FF323F"/>
</svg>
